# xmcd
#
# Track frame offsets:
#	150
#	29245
#	44628
#	80780
#	117450
#	161756
#
# Disc length: 2350 seconds
#
# Revision: 0
# Processed by: cddbd v1.5.2PL0 Copyright (c) Steve Scherf et al.
# Submitted via: audiograbber 1.83.01
#
DISCID=58092c06
DTITLE=Grateful Dead - 82-04-02 Cameron Indoor Stadium, Duke Uni, Durham NC
DYEAR=1900
DGENRE=
TTITLE0=Space
TTITLE1=The Other One Space
TTITLE2=The Other One
TTITLE3=Black Peter
TTITLE4=Sugar Magnolia
TTITLE5=Don't Ease Me In
EXTD=
EXTT0=
EXTT1=
EXTT2=
EXTT3=
EXTT4=
EXTT5=
PLAYORDER=
